<svg width="37" height="68" viewBox="0 0 37 68" fill="none" xmlns="http://www.w3.org/2000/svg">
<path d="M30.714 17.7955C30.714 17.7955 36.4961 11.5796 34.1116 5.75988C31.7272 -0.0598168 20.1337 -0.441478 14.651 16.1033C10.2648 29.3391 7.48338 51.1955 8.09181 62.7507M1.45011 55.5985L1.70577 56.5737L2.21916 58.375L2.99982 60.3151L3.78635 61.8324L4.842 63.355V63.355C5.36947 64.0898 5.9504 64.7846 6.58007 65.434L6.834 65.6958V65.6958C7.54755 66.264 8.55014 66.294 9.29643 65.7696L9.35058 65.7316C9.5548 65.5881 9.7449 65.4255 9.91832 65.246L10.2039 64.9505L10.5206 64.6226C11.4006 63.7118 12.2098 62.735 12.941 61.7008V61.7008L14.0431 59.8775L15.7338 56.372" stroke="#006cafc2" stroke-width="3"/>
</svg>
